<svg width="720" height="460" viewBox="0 0 720 460" fill="none" xmlns="http://www.w3.org/2000/svg">
  <defs>
    <linearGradient id="preview" x1="0" y1="0" x2="1" y2="1">
      <stop offset="0" stop-color="#ececfb"/>
      <stop offset="1" stop-color="#d7d7f6"/>
    </linearGradient>
    <linearGradient id="accent" x1="0" y1="0" x2="1" y2="1">
      <stop offset="0" stop-color="#111317"/>
      <stop offset="1" stop-color="#c9cac4"/>
    </linearGradient>
  </defs>

  <!-- window -->
  <rect x="8" y="8" width="704" height="444" rx="14" fill="#ffffff"/>
  <rect x="8.5" y="8.5" width="703" height="443" rx="13.5" stroke="#0a0a0f" stroke-opacity="0.08"/>

  <!-- title bar -->
  <circle cx="32" cy="32" r="4" fill="#e5e7eb"/>
  <circle cx="48" cy="32" r="4" fill="#e5e7eb"/>
  <circle cx="64" cy="32" r="4" fill="#e5e7eb"/>
  <rect x="300" y="26" width="120" height="12" rx="6" fill="#f3f4f6"/>
  <line x1="8" y1="56" x2="712" y2="56" stroke="#0a0a0f" stroke-opacity="0.06"/>

  <!-- left: request panel -->
  <rect x="28" y="80" width="300" height="344" rx="10" fill="#fafafa"/>
  <rect x="44" y="100" width="84" height="9" rx="4.5" fill="#111317"/>
  <rect x="44" y="124" width="268" height="40" rx="8" fill="#ffffff" stroke="#e5e7eb"/>
  <rect x="56" y="140" width="180" height="8" rx="4" fill="#9ca3af"/>
  <rect x="44" y="180" width="120" height="8" rx="4" fill="#d1d5db"/>
  <rect x="44" y="196" width="130" height="34" rx="8" fill="#ffffff" stroke="#e5e7eb"/>
  <rect x="182" y="196" width="130" height="34" rx="8" fill="#ffffff" stroke="#e5e7eb"/>
  <rect x="44" y="246" width="90" height="8" rx="4" fill="#d1d5db"/>
  <rect x="44" y="262" width="268" height="34" rx="8" fill="#ffffff" stroke="#e5e7eb"/>
  <!-- palette swatches -->
  <circle cx="60" cy="324" r="9" fill="#111317"/>
  <circle cx="84" cy="324" r="9" fill="#c9cac4"/>
  <circle cx="108" cy="324" r="9" fill="#0a0a0f"/>
  <circle cx="132" cy="324" r="9" fill="#10b981"/>
  <!-- run button -->
  <rect x="44" y="372" width="268" height="36" rx="8" fill="url(#accent)"/>
  <rect x="150" y="386" width="56" height="9" rx="4.5" fill="#ffffff" fill-opacity="0.95"/>

  <!-- right: result preview -->
  <rect x="348" y="80" width="344" height="344" rx="10" fill="url(#preview)"/>
  <!-- status pill -->
  <rect x="364" y="96" width="96" height="24" rx="12" fill="#ffffff"/>
  <circle cx="380" cy="108" r="4" fill="#10b981"/>
  <rect x="392" y="104" width="52" height="8" rx="4" fill="#0a0a0f" fill-opacity="0.7"/>
  <!-- subject silhouette -->
  <circle cx="520" cy="232" r="46" fill="#111317" fill-opacity="0.22"/>
  <circle cx="520" cy="214" r="20" fill="#111317" fill-opacity="0.5"/>
  <path d="M484 300 C484 268 502 252 520 252 C538 252 556 268 556 300 Z" fill="#111317" fill-opacity="0.5"/>
  <!-- meta footer -->
  <rect x="364" y="388" width="150" height="8" rx="4" fill="#0a0a0f" fill-opacity="0.18"/>
  <rect x="600" y="384" width="76" height="16" rx="8" fill="#ffffff" fill-opacity="0.8"/>
</svg>
